<?xml version="1.0" encoding="utf-8"?>
<!-- Generator: Adobe Illustrator 21.0.0, SVG Export Plug-In . SVG Version: 6.00 Build 0)  -->
<svg version="1.1" id="Warstwa_1" focusable="false"
	 xmlns="http://www.w3.org/2000/svg" xmlns:xlink="http://www.w3.org/1999/xlink" x="0px" y="0px" viewBox="0 0 512 512"
	 style="enable-background:new 0 0 512 512;" xml:space="preserve">
<style type="text/css">
	.st0{fill:#718093;stroke:#2F3640;stroke-width:40;stroke-miterlimit:10;}
	.st1{fill:#BDC3C7;}
</style>
<path class="st0" d="M512,512H0V0h512V512z"/>
<path class="st1" d="M256.3,72.4c-57.2,0-94.3,23.5-123.4,65.3c-5.3,7.6-3.7,18,3.7,23.6l30.9,23.5c7.4,5.6,18,4.3,23.9-3
	c18-22.5,31.3-35.5,59.4-35.5c22.1,0,49.4,14.2,49.4,35.6c0,16.2-13.4,24.5-35.1,36.7c-25.4,14.2-59,32-59,76.3v7
	c0,9.5,7.7,17.2,17.2,17.2h52c9.5,0,17.2-7.7,17.2-17.2v-4.1c0-30.7,89.8-32,89.8-115.2C382.2,119.9,317.2,72.4,256.3,72.4z
	 M249.2,340.2c-27.4,0-49.7,22.3-49.7,49.7c0,27.4,22.3,49.7,49.7,49.7s49.7-22.3,49.7-49.7C298.8,362.5,276.5,340.2,249.2,340.2z"
	/>
</svg>
