<?xml version="1.0" encoding="utf-8"?>
<!-- Generator: Adobe Illustrator 21.0.0, SVG Export Plug-In . SVG Version: 6.00 Build 0)  -->
<svg version="1.1" id="Warstwa_1" focusable="false"
	 xmlns="http://www.w3.org/2000/svg" xmlns:xlink="http://www.w3.org/1999/xlink" x="0px" y="0px" viewBox="0 0 512 512"
	 style="enable-background:new 0 0 512 512;" xml:space="preserve">
<style type="text/css">
	.st0{fill:#C0392B;stroke:#2F3640;stroke-width:40;stroke-miterlimit:10;}
	.st1{fill:#ECF0F1;}
</style>
<path class="st0" d="M512,512H0V0h512V512z"/>
<path class="st1" d="M389.3,135l-37.6,37.6l19.2,19.2c6.8,6.8,6.8,17.8,0,24.5l-12.6,12.6c8.5,18.9,13.3,39.8,13.3,61.9
	c0,83-67.3,150.3-150.3,150.3S71,373.8,71,290.7s67.3-150.3,150.3-150.3c22,0,43,4.8,61.9,13.3l12.6-12.6c6.8-6.8,17.8-6.8,24.5,0
	l19.2,19.2l37.6-37.6L389.3,135z M432.3,114.4H415c-4.8,0-8.7,3.9-8.7,8.7s3.9,8.7,8.7,8.7h17.3c4.8,0,8.7-3.9,8.7-8.7
	S437.1,114.4,432.3,114.4z M389,71c-4.8,0-8.7,3.9-8.7,8.7V97c0,4.8,3.9,8.7,8.7,8.7s8.7-3.9,8.7-8.7V79.7
	C397.6,74.9,393.7,71,389,71z M413.5,110.8l12.3-12.3c3.4-3.4,3.4-8.9,0-12.3s-8.9-3.4-12.3,0l-12.3,12.3c-3.4,3.4-3.4,8.9,0,12.3
	C404.7,114.2,410.1,114.2,413.5,110.8z M364.5,110.8c3.4,3.4,8.9,3.4,12.3,0s3.4-8.9,0-12.3l-12.3-12.3c-3.4-3.4-8.9-3.4-12.3,0
	s-3.4,8.9,0,12.3L364.5,110.8z M413.5,135.4c-3.4-3.4-8.9-3.4-12.3,0s-3.4,8.9,0,12.3l12.3,12.3c3.4,3.4,8.9,3.4,12.3,0
	s3.4-8.9,0-12.3L413.5,135.4z M151.9,267.6c0-25.5,20.7-46.3,46.3-46.3c6.4,0,11.6-5.2,11.6-11.6s-5.2-11.6-11.6-11.6
	c-38.2,0-69.4,31.1-69.4,69.4c0,6.4,5.2,11.6,11.6,11.6S151.9,274,151.9,267.6z"/>
</svg>
