<?xml version="1.0" encoding="utf-8"?>
<!-- Generator: Adobe Illustrator 21.0.0, SVG Export Plug-In . SVG Version: 6.00 Build 0)  -->
<svg version="1.1" id="Warstwa_1" focusable="false"
	 xmlns="http://www.w3.org/2000/svg" xmlns:xlink="http://www.w3.org/1999/xlink" x="0px" y="0px" viewBox="0 0 512 512"
	 style="enable-background:new 0 0 512 512;" xml:space="preserve">
<style type="text/css">
	.st0{fill:#718093;stroke:#2F3640;stroke-width:40;stroke-miterlimit:10;}
	.st1{fill:#BDC3C7;}
</style>
<path class="st0" d="M512,512H0V0h512V512z"/>
<path class="st1" d="M417.5,331.7c0,5.2-4.5,7.5-9.7,9.7c-21,9-43.5,17.2-67.4,17.2c-33.7,0-49.5-21-89.9-21
	c-29.2,0-59.9,10.5-84.7,21.7c-1.5,0.7-3,0.7-4.5,1.5v57c0,15.7-11.8,25.5-24.7,25.5c-14.2,0-25.5-11.2-25.5-25.5V143.6
	c-9.7-7.5-16.5-19.5-16.5-33c0-23.2,18.7-42,42-42s42,18.7,42,42c0,13.5-6,25.5-16.5,33v23.2c3-1,43-21,83.9-21
	c47.8,0,71.5,20.2,92.9,20.2c28.5,0,59.9-20.2,67.4-20.2c6,0,11.2,4.5,11.2,9.7V331.7L417.5,331.7z"/>
</svg>
